# xmcd CD database file
#
# Track frame offsets:
#	150
#	19122
#	35785
#	51959
#	72207
#
# Disc length: 1170 seconds
#
# Revision: 0
# Processed by: cddbd v1.5.1PL0 Copyright (c) Steve Scherf et al.
# Submitted via: CDex 1.51
#
DISCID=41049005
DTITLE=Hurry Up! - Slow Down!
DYEAR=1900
DGENRE=Jazz
TTITLE0=Pätorka
TTITLE1=Unhappy Day
TTITLE2=3:33
TTITLE3=Funny Groove
TTITLE4=Mulo Máto
EXTD=
EXTT0=
EXTT1=
EXTT2=
EXTT3=
EXTT4=
PLAYORDER=
